<svg id="Layer_1" data-name="Layer 1" xmlns="http://www.w3.org/2000/svg" viewBox="0 0 223.8 70.73"><defs><style>.cls-1{fill:#ff3838;}.cls-2{fill:#3d3b38;}</style></defs><title>Artboard 1</title><polygon class="cls-1" points="64.57 0 16.6 7.79 7.34 42.52 64.57 0"/><polygon class="cls-2" points="5.18 50.52 0 70.06 61.98 24.92 33.23 29.68 5.18 50.52"/><path class="cls-2" d="M119.45,63.14a1.55,1.55,0,0,0-.72-.56,2.53,2.53,0,0,0-.94-.18,2.38,2.38,0,0,0-.57.07,1.56,1.56,0,0,0-.5.21,1.1,1.1,0,0,0-.35.38,1.07,1.07,0,0,0-.13.55.85.85,0,0,0,.33.73,3.32,3.32,0,0,0,.83.44c.33.12.69.24,1.08.36a4.49,4.49,0,0,1,1.08.48,2.65,2.65,0,0,1,.83.81,2.37,2.37,0,0,1,.33,1.33,2.91,2.91,0,0,1-.28,1.32,2.71,2.71,0,0,1-.76.93,3.29,3.29,0,0,1-1.1.55,4.67,4.67,0,0,1-1.32.19,5,5,0,0,1-1.7-.29,3.3,3.3,0,0,1-1.4-1l1.27-1.22a2.12,2.12,0,0,0,.81.72,2.3,2.3,0,0,0,1.65.18,1.84,1.84,0,0,0,.53-.24,1.23,1.23,0,0,0,.39-.4,1.06,1.06,0,0,0,.15-.56,1,1,0,0,0-.33-.79,2.93,2.93,0,0,0-.83-.47c-.33-.13-.69-.25-1.08-.37a4.42,4.42,0,0,1-1.08-.47,2.62,2.62,0,0,1-.83-.79,2.35,2.35,0,0,1-.33-1.33,2.49,2.49,0,0,1,.3-1.26,2.72,2.72,0,0,1,.79-.88,3.44,3.44,0,0,1,1.12-.52A4.84,4.84,0,0,1,118,60.9a4.73,4.73,0,0,1,1.45.22,3.38,3.38,0,0,1,1.26.74Z"/><polygon class="cls-2" points="125.89 62.64 122.99 62.64 122.99 61.13 130.48 61.13 130.48 62.64 127.58 62.64 127.58 70.49 125.89 70.49 125.89 62.64"/><path class="cls-2" d="M132.59,65.85a5.33,5.33,0,0,1,.37-2,4.47,4.47,0,0,1,2.61-2.57,5.59,5.59,0,0,1,2-.35,5.68,5.68,0,0,1,2,.32,4.42,4.42,0,0,1,1.59,1,4.54,4.54,0,0,1,1,1.56,5.3,5.3,0,0,1,.37,2,5.14,5.14,0,0,1-.37,2,4.58,4.58,0,0,1-1,1.54,4.8,4.8,0,0,1-1.59,1,5.71,5.71,0,0,1-2,.38,5.59,5.59,0,0,1-2-.35A4.49,4.49,0,0,1,133,67.85a5.12,5.12,0,0,1-.37-2m1.77-.11a4,4,0,0,0,.23,1.39,3.24,3.24,0,0,0,.66,1.1,3.09,3.09,0,0,0,1,.73,3.23,3.23,0,0,0,1.33.26,3.29,3.29,0,0,0,1.34-.26,3.07,3.07,0,0,0,1-.73,3.23,3.23,0,0,0,.66-1.1,4,4,0,0,0,.23-1.39,3.61,3.61,0,0,0-.23-1.31,3.2,3.2,0,0,0-.66-1.06,3,3,0,0,0-1-.71,3.35,3.35,0,0,0-1.34-.26,3.29,3.29,0,0,0-1.33.26,3.06,3.06,0,0,0-1,.71,3.21,3.21,0,0,0-.66,1.06,3.61,3.61,0,0,0-.23,1.31"/><path class="cls-2" d="M145.72,61.13H149a6.69,6.69,0,0,1,1.32.13,3.43,3.43,0,0,1,1.13.43,2.27,2.27,0,0,1,.79.82,2.62,2.62,0,0,1,.29,1.31,2.58,2.58,0,0,1-.57,1.7,2.45,2.45,0,0,1-1.62.83l2.51,4.14h-2l-2.19-4H147.4v4h-1.68Zm3,4c.24,0,.48,0,.72,0a2.29,2.29,0,0,0,.66-.16,1.14,1.14,0,0,0,.49-.38,1.22,1.22,0,0,0,.19-.72,1.13,1.13,0,0,0-.18-.66,1.07,1.07,0,0,0-.46-.38,2.19,2.19,0,0,0-.62-.17,5.9,5.9,0,0,0-.66,0H147.4V65.1Z"/><polygon class="cls-2" points="155.65 61.13 158.22 61.13 160.75 67.69 163.3 61.13 165.84 61.13 165.84 70.49 164.24 70.49 164.24 62.72 164.21 62.72 161.34 70.49 160.16 70.49 157.28 62.72 157.25 62.72 157.25 70.49 155.65 70.49 155.65 61.13"/><polygon class="cls-2" points="174.93 61.13 177.5 61.13 180.03 67.69 182.58 61.13 185.13 61.13 185.13 70.49 183.52 70.49 183.52 62.72 183.49 62.72 180.62 70.49 179.44 70.49 176.57 62.72 176.54 62.72 176.54 70.49 174.93 70.49 174.93 61.13"/><polygon class="cls-2" points="188.75 61.13 195.02 61.13 195.02 62.64 190.43 62.64 190.43 64.94 194.78 64.94 194.78 66.44 190.43 66.44 190.43 68.98 195.26 68.98 195.26 70.49 188.75 70.49 188.75 61.13"/><path class="cls-2" d="M198.39,61.13h3.73a5.8,5.8,0,0,1,1.81.28,4.39,4.39,0,0,1,1.54.87,4.24,4.24,0,0,1,1.07,1.46,5,5,0,0,1,.4,2.07,4.41,4.41,0,0,1-.46,2.08,4.47,4.47,0,0,1-1.19,1.45,5.09,5.09,0,0,1-1.62.86,5.7,5.7,0,0,1-1.74.28h-3.53ZM201.33,69a6.07,6.07,0,0,0,1.49-.18,3.55,3.55,0,0,0,1.22-.56,2.64,2.64,0,0,0,.82-1,3.25,3.25,0,0,0,.3-1.46,3.58,3.58,0,0,0-.27-1.45,2.53,2.53,0,0,0-.74-1,3.14,3.14,0,0,0-1.12-.56,5.4,5.4,0,0,0-1.42-.18h-1.54V69Z"/><rect class="cls-2" x="209.97" y="61.13" width="1.69" height="9.35"/><path class="cls-2" d="M218.26,61.13h1.46l4.08,9.36h-1.93L221,68.35h-4.11L216,70.49h-1.89Zm2.14,5.79-1.46-3.8-1.49,3.8Z"/><path class="cls-2" d="M119.71,39.21A6.49,6.49,0,0,1,118.25,38l-.26-.32v.41c-.15,6.79-.7,7.13-.81,7.13-3,0-3-22.17-3-35.41V9.64h-30V23.47c0,7.66-.64,16.35-5.41,22.75l-.11.15.17.08a5.15,5.15,0,0,1,1.6,1.22l.12.17.13-.17c4-5.37,5.91-13.29,5.91-24.21V12h25.3l0,2.34c.21,19.39.35,33.4,5.13,33.4,2.09,0,2.56-2.23,2.82-8.34v-.09Z"/><path class="cls-2" d="M105.62,35.95l-.07-.07-2.06.82.15.16a41.1,41.1,0,0,1,3.25,4L100,41.2V34.32h8.29V22.27H100V17.71a1.09,1.09,0,0,0,.64-.37,77.15,77.15,0,0,0,8.06-1.73,1.3,1.3,0,0,0,.35,0,.72.72,0,0,0,.55-.18l.12-.12-2.26-1.82-.08,0C102.7,15,94.05,16.32,87.51,17l-.23,0,.11.2A6.43,6.43,0,0,1,88,18.89l0,.14h.14c2.85-.28,6.11-.7,9.44-1.2v4.45h-8.2V34.32h8.2v7c-4.51.22-8.64.4-11.39.52H86l1,2.86.12,0a.8.8,0,0,0,.62-.57c5-.27,12.79-.78,20.32-1.35a20.79,20.79,0,0,1,1.78,3.45l.06.15,2.07-1,0-.13c-.92-2.54-3.54-6.36-6.39-9.31m-8-3.82h-6V24.41h6ZM100,24.41h6.1v7.72H100Z"/><path class="cls-2" d="M141.08,8.75a1,1,0,0,0,1-.53l.07-.15-3-1,0,.14c-2.5,7.82-6.59,15.57-10.67,20.21l-.08.09.07.1a22,22,0,0,1,1.17,1.87l.11.2.14-.17A52.05,52.05,0,0,0,135,22V47.74h2.41V18.34a.91.91,0,0,0,.78-.52l.06-.16-.82-.22a83.14,83.14,0,0,0,3.62-8.69"/><path class="cls-2" d="M147.11,37.82l-.09-.07L145.19,39l.16.13a40,40,0,0,1,5.94,5.94l.1.13,1.86-1.51-.09-.12a42.74,42.74,0,0,0-6-5.77"/><path class="cls-2" d="M163.57,32.46a.88.88,0,0,0,.69-.34l2.17-.08a23.85,23.85,0,0,1,2.09,2.09l.09.11,1.88-1.32-.11-.13a40.68,40.68,0,0,0-6.63-5.49h4V15.38H156.55V12.66h13.2V10.51h-13.2V8.17a.79.79,0,0,0,.74-.63l0-.17-3.18-.2v3.34H141.43v2.15h12.72v2.72H143.27V27.31h10.87v3.07c-4.81.08-9.45.13-13.09.13h-.21l.85,2.74.13,0a.94.94,0,0,0,.69-.53c5-.09,11.95-.27,18.69-.48v3.11H140.07v2.19h21.14v7.3c0,.68,0,.68-2.44.68-.88,0-2.05,0-3.41-.06l-1.29,0,.22.52a9.65,9.65,0,0,1,.61,1.65l0,.12H155c4.53,0,5.9,0,6.93-.31,1.34-.4,1.6-1.21,1.6-2.56v-7.3h6.71V35.33h-6.71Zm-7-15.16h8.81v3.07h-8.81Zm0,5h8.81v3.11h-8.81Zm0,5h4.92l-.66.41.19.13c.81.56,2,1.41,3.25,2.37-2.54.08-5.11.12-7.61.16h-.1Zm-2.41-1.93h-8.55V22.26h8.55Zm0-5h-8.55V17.31h8.55Z"/><polygon class="cls-1" points="214.98 16.54 207.35 17.78 205.88 23.3 214.98 16.54"/><path class="cls-2" d="M223.59,44.08a34.26,34.26,0,0,1-10.22-9.49h10.08V32.35H211.57v-4a.81.81,0,0,0,.71-.46h6.44V14.15h4.87V11.87h-4.87V7.82a.8.8,0,0,0,.74-.64l0-.17-3.14-.2v5.05H204.51V7.82a.8.8,0,0,0,.74-.63l0-.17-3.09-.2v5.05h-5.13v2.28h5.13V27.88h7v4.48H197.58v2.23h9.69a33.48,33.48,0,0,1-10.57,9.75l-.19.1.16.15a9.6,9.6,0,0,1,1.51,1.72l.08.13.13-.08a39.7,39.7,0,0,0,10.77-10.71v12h2.41v-12A40.39,40.39,0,0,0,221.86,46l.12.08.08-.12a8.37,8.37,0,0,1,1.54-1.68l.19-.14Zm-7.24-18.39H204.51V14.15h11.84Z"/><path class="cls-2" d="M197.17,43.15l1.51-2L198.6,41a37.53,37.53,0,0,0-4.72-4.77c2.13-5,3.44-11.26,4-19.11a1.43,1.43,0,0,0,.22-.45l0-.14-1.41-.4-.4.09h-6.47c.69-3.22,1.26-6,1.69-8.29.48,0,.76-.22.81-.56l0-.15-3.1-.44-.08.4c-.51,2.75-1.1,5.86-1.77,9h-4.77v2.32h4.26c-1,4.61-2.38,10.92-3.6,15.24l0,.12,2.12,1.11.56-2.12c1.68,1.19,3.4,2.53,5,3.91a20.6,20.6,0,0,1-7.82,8.82l-.19.11.17.14a7.36,7.36,0,0,1,1.37,1.71l.08.14.13-.09a22.76,22.76,0,0,0,8.12-9.18A40,40,0,0,1,197,43ZM186.55,30.64c.91-3.64,1.9-7.92,2.8-12.06h6.07a54.4,54.4,0,0,1-3.49,16,62,62,0,0,0-5.38-4"/><polygon class="cls-2" points="81.47 62.4 78.57 62.4 78.57 60.9 86.06 60.9 86.06 62.4 83.16 62.4 83.16 70.25 81.47 70.25 81.47 62.4"/><polygon class="cls-2" points="98.58 60.9 104.85 60.9 104.85 62.4 100.27 62.4 100.27 64.7 104.61 64.7 104.61 66.21 100.27 66.21 100.27 68.75 105.09 68.75 105.09 70.25 98.58 70.25 98.58 60.9"/><polygon class="cls-2" points="94.17 60.81 94.17 64.63 89.35 64.63 89.35 60.81 87.73 60.81 87.73 70.29 89.35 70.29 89.35 66.08 94.17 66.08 94.17 70.29 95.8 70.29 95.8 60.81 94.17 60.81"/></svg>