<?xml version="1.0" encoding="UTF-8"?>
<svg id="_圖層_1" data-name="圖層_1" xmlns="http://www.w3.org/2000/svg" version="1.1" viewBox="0 0 209.9 28.7">
  <!-- Generator: Adobe Illustrator 29.0.0, SVG Export Plug-In . SVG Version: 2.1.0 Build 186)  -->
  <defs>
    <style>
      .st0 {
        fill: #fff;
      }
    </style>
  </defs>
  <path class="st0" d="M34.2,1.1v6h-12.1l-.4,1.1h10.8v20h-8.9v-.3h-12.9v.3H1.7V8.1h10.4l.4-1.1H0V1.1h34.2ZM10.7,15.2h12.9v-1.5h-12.9v1.5ZM10.7,21.9h12.9v-1.6h-12.9v1.6Z"/>
  <path class="st0" d="M65.5,9.1v10.4h12.5v7.6h-34.4v-7.6h12.5v-10.4h-10.6V1.5h30.6v7.6h-10.6Z"/>
  <path class="st0" d="M109.1,6.5c0,3.6,1.1,6.4,3.3,8.5,2.2,2.1,5.6,3.6,10.3,4.5-.7,1.1-1.3,2.2-1.8,3.4-.5,1.2-1.1,2.6-1.7,4.3-.1.3-.3.8-.6,1.5-2.9-.8-5.6-2.1-8.1-3.9s-4.5-4.2-6-7c-1.5,2.8-3.6,5.1-6.1,7-2.5,1.9-5.2,3.2-8.1,3.9-.2-.7-.4-1.2-.6-1.5-.6-1.7-1.2-3.2-1.7-4.3-.5-1.2-1.1-2.3-1.8-3.4,4.6-.9,8-2.4,10.2-4.4,2.2-2.1,3.3-4.9,3.3-8.5V0s9.5,0,9.5,0v6.4Z"/>
  <path class="st0" d="M165.2,1.4v15.8c0,2.8-.3,4.9-.8,6.2s-1.5,2.3-3,3-4,1.4-7.5,2.2c-.4-1.7-1-3.3-1.9-4.9-1.5,1.4-3.2,2.8-5.2,4.3-.7-1-1.9-2.4-3.8-4.2-.1,1.2-.5,2-1.2,2.7-.6.6-1.7,1-3.1,1.3s-3.4.4-6,.5c-.2-2.4-.8-4.7-1.9-7.1,1.9,0,3.2,0,3.9,0,.7,0,1.1-.1,1.2-.3.1-.1.2-.4.2-.8h0c-1.2,0-3,.1-5.3.3-.1-2.8-.4-5.1-.7-6.9,1.2,0,2.1,0,2.7,0-.5-.6-1.1-1.2-1.9-1.8l-.8-.7c.9-2.9,1.3-5.8,1.3-8.5h3.9v1.4h.8V.6h6.9v3.2h1.6c.7-1,1.1-2.3,1.2-3.6h7.3c0,.3,0,.5-.1.6,0,.2-.1.4-.2.6h12.3ZM136.2,13.3v-3.5h-1.2c-.1,1.1-.4,2.3-.7,3.5h1.9ZM144.7,9.9h-1.6v2.9c.4,0,.9,0,1.6-.2v1c.9-.5,1.8-1.2,2.8-2.1,1-.9,1.9-2,2.7-3.1h-1.1c-.7,1-1.7,2-2.8,3.2-.5-1.3-1-2.5-1.7-3.6v2ZM151.6,16.6c2.2-2.3,4.2-5,6-8.3h-1.1c-1.4,2.4-2.8,4.5-4.4,6.4-1.6,1.9-3.5,3.6-5.7,5.1-.3-1.5-.9-3.1-1.7-5.1v4.2l-1.6.2v3.3c3.5-1.7,6.3-3.7,8.5-6ZM156.9,20.4c.5-.2.8-.5.9-.9s.2-.8.2-1.3v-1.3c-1.1,1.4-2.2,2.8-3.4,4,1-.1,1.7-.3,2.2-.6Z"/>
  <path class="st0" d="M206.1,16.2c.8,1.3,2,2.1,3.7,2.3-.5,1.3-.9,2.6-1.2,4-.3,1.4-.7,3.2-1,5.4-.7-.6-1.3-1.3-1.8-2-.5-.8-1-1.7-1.4-2.8,0,.6,0,1.1,0,1.3,0,1.7-.6,2.7-1.9,2.8-1.5.1-2.6.2-3.6.2s-2,0-3.2-.2c-1.4-.1-2.1-.9-2.1-2.3s0-.8,0-1.1c-.7,1.7-1.7,3-3,4.1-.3-1.9-.6-3.6-1-5.2v5.2h-8.4v.4h-6.4v-10h14.1c1.4-.3,2.5-1.1,3.2-2.2h-2.2v-6.6h5.6v-1.2h-5.2v.7h-16v-4h15.3V1.9h5.9V.2h7.1v1.7h5.9v6.5h-5.9v1.2h5.6v6.6h-2.3ZM175.2.8h14v3.6h-14V.8ZM175.2,9.7h14v3.7h-14v-3.7ZM189.3,17.8h-14v-3.8h14v3.8ZM181.4,22.1v1.6h2v-1.6h-2ZM197.6,17.4l-.5-1,.4-.2h-3.2c.5.6.9,1,1.3,1.2h2ZM200.4,20.1c0,0,0-.2,0-.4,0-.2,0-.5,0-.7l-1.5.9c-.2-.5-.4-.9-.6-1.2-.2-.3-.3-.5-.4-.7l-.2,1.4v.4c0,.3,0,.5.3.5,1.1,0,1.8,0,2,0,.2,0,.3,0,.3-.1ZM201,18.7c.3.1.6.2,1.1.2s.7,0,1.1-.1c0-.2-.1-.6-.3-1.1l-1.9,1.1ZM204.2,16.2h-2.4l.9,1.3c.4-.3.9-.7,1.4-1.3Z"/>
</svg>